<?xml version="1.0" standalone="no"?>
<!DOCTYPE svg PUBLIC "-//W3C//DTD SVG 20010904//EN"
 "http://www.w3.org/TR/2001/REC-SVG-20010904/DTD/svg10.dtd">
<svg version="1.0" xmlns="http://www.w3.org/2000/svg"
 width="80.000000pt" height="80.000000pt" viewBox="0 0 80.000000 80.000000"
 preserveAspectRatio="xMidYMid meet">

<g transform="translate(0.000000,80.000000) scale(0.100000,-0.100000)"
fill="#000000" stroke="none">
<path d="M390 740 c-78 -10 -109 -39 -143 -131 l-17 -45 -96 0 c-108 1 -107 1
-125 -84 -15 -74 -5 -170 25 -237 26 -56 66 -114 66 -95 0 15 58 45 70 37 6
-3 11 -23 11 -43 l2 -37 7 35 c6 26 7 20 4 -25 -2 -42 0 -53 6 -35 l8 25 1
-27 c1 -20 9 -32 32 -44 23 -11 34 -13 39 -4 5 8 10 7 19 -4 19 -23 96 -30
170 -17 133 25 238 108 298 237 24 51 28 71 28 154 0 76 -5 105 -22 143 l-22
47 -75 0 -75 0 -28 52 c-44 81 -97 109 -183 98z m39 -145 c17 -20 31 -38 31
-42 0 -3 -24 -2 -52 1 -48 6 -81 -2 -79 -18 0 -3 -2 -13 -6 -22 -8 -20 32 -53
65 -54 12 0 31 9 41 19 24 24 31 18 31 -30 0 -41 -20 -57 -44 -34 -19 19 -31
19 -61 -1 -19 -12 -25 -25 -25 -51 0 -34 1 -34 31 -28 29 7 31 5 26 -14 -3
-14 1 -22 14 -26 25 -8 25 -25 0 -25 -11 0 -26 -7 -35 -15 -19 -19 -26 -19
-26 1 0 9 -13 32 -30 50 -17 20 -33 51 -36 75 -5 30 -13 43 -30 50 -19 7 -24
16 -24 43 0 19 6 37 13 39 9 4 8 8 -3 16 -9 7 -11 11 -3 11 7 0 16 -7 21 -17
9 -15 11 -14 20 4 6 11 27 36 47 56 58 58 72 59 114 12z m-211 -215 c-6 -23
-12 -39 -14 -37 -6 6 9 77 16 77 4 0 3 -18 -2 -40z m202 0 c0 -8 -24 -20 -41
-20 -14 0 -11 28 4 33 15 5 37 -2 37 -13z m-157 -260 c4 -33 4 -57 -3 -64 -15
-15 -18 -7 -26 63 -6 52 -4 63 7 59 8 -3 17 -27 22 -58z m57 -86 c0 -8 -4 -12
-10 -9 -5 3 -10 10 -10 16 0 5 5 9 10 9 6 0 10 -7 10 -16z"/>
<path d="M241 484 c0 -11 3 -14 6 -6 3 7 2 16 -1 19 -3 4 -6 -2 -5 -13z"/>
<path d="M130 140 c0 -29 35 -78 47 -66 3 3 0 26 -7 51 -14 52 -40 61 -40 15z"/>
</g>
</svg>
