<?xml version="1.0" standalone="no"?>
<!DOCTYPE svg PUBLIC "-//W3C//DTD SVG 20010904//EN"
 "http://www.w3.org/TR/2001/REC-SVG-20010904/DTD/svg10.dtd">
<svg version="1.0" xmlns="http://www.w3.org/2000/svg"
 width="80.000000pt" height="80.000000pt" viewBox="0 0 80.000000 80.000000"
 preserveAspectRatio="xMidYMid meet">

<g transform="translate(0.000000,80.000000) scale(0.100000,-0.100000)"
fill="#000000" stroke="none">
<path d="M398 791 c18 -11 -4 -28 -42 -33 -40 -4 -58 -34 -32 -54 11 -8 28
-12 38 -9 9 4 27 -1 40 -9 22 -15 37 -15 68 -3 8 3 32 8 53 12 33 5 37 4 37
-15 0 -11 -6 -20 -12 -20 -15 -1 -227 -28 -281 -36 -37 -6 -37 -6 -27 21 8 22
6 33 -11 61 -11 19 -24 34 -27 34 -20 0 -76 -45 -111 -89 -62 -79 -85 -149
-86 -257 0 -84 2 -95 38 -166 149 -303 565 -303 714 0 36 71 38 82 38 166 -1
109 -25 181 -89 259 -40 49 -150 122 -168 111 -5 -3 -34 -2 -66 2 -31 4 -51 9
-44 11 19 7 4 23 -21 23 -15 0 -18 -3 -9 -9z m46 -277 c3 -8 2 -14 -2 -14 -12
0 -6 -54 6 -58 7 -2 12 -10 12 -18 0 -9 -12 -14 -36 -14 -33 0 -36 2 -29 23 4
12 8 36 10 52 1 17 3 35 3 42 2 16 29 6 36 -13z"/>
<path d="M458 783 c7 -3 16 -2 19 1 4 3 -2 6 -13 5 -11 0 -14 -3 -6 -6z"/>
</g>
</svg>
